<svg xmlns="http://www.w3.org/2000/svg" width="167.469" height="51.719" viewBox="0 0 167.469 51.719">
  <defs>
    <style>
      .cls-1 {
        fill-rule: evenodd;
      }
    </style>
  </defs>
  <path id="Beog_copy" data-name="Beog copy" class="cls-1" d="M322.576,121h12.145c7.561,0,12.361-3.7,12.361-10.8,0-5.136-2.808-7.7-7.9-8.161a6.894,6.894,0,0,0,6.7-7.32c0-4.944-3.528-8.617-11.353-8.617H322.576V121Zm6.553-20.594V91.862h4.536c3.217,0,5.329,1.08,5.305,3.864,0,3.072-1.44,4.68-5.209,4.68h-4.632Zm0,14.785v-9.744h4.656c3.721,0,6.265.432,6.265,4.752,0,3.792-1.848,4.992-6.1,4.992h-4.824Zm33.191,6.169c6.265,0,10.465-3.192,10.9-8.449h-6.36c-0.36,1.8-1.824,3.217-4.705,3.217-3.288,0-5.424-2.161-5.736-6.961h17.233c0.048-1.032.12-1.752,0.12-2.592,0-7.993-4.08-12.289-11.353-12.289-7.464,0-12.529,4.872-12.529,13.585C349.887,116.536,354.52,121.36,362.32,121.36Zm-3.072-16.249c-1.728,0-2.616.5-2.88,2.16,0.144-4.825,1.9-7.633,5.784-7.633,3.529,0,5.041,1.9,5.161,5.473h-8.065Zm29.519,16.249c7.033,0,12.361-4.776,12.361-13.609,0-8.353-4.584-13.465-12.265-13.465-7.152,0-12.361,5.112-12.361,13.465C376.5,116.584,381.3,121.36,388.767,121.36Zm0.1-5.544c-3.24,0-5.712-2.425-5.712-8.065,0-5.5,2.328-7.921,5.616-7.921,3.361,0,5.737,2.448,5.737,7.921C394.5,113.631,392.128,115.816,388.863,115.816ZM416.2,131.729c7.033-.072,11.281-3.5,11.281-10.585V94.814h-6.336L421,98.294c-0.793-1.992-2.857-3.984-6.961-3.984-5.569,0-10.129,4.656-10.129,13.249,0,6.624,3.624,12.481,9.889,12.481,4.512,0,6.552-2.448,7.129-5.737v7.249c0,3.312-.937,4.848-4.633,4.848-4.152,0-4.992-1.848-4.944-4.272h-6.409C404.294,128.177,409.07,131.825,416.2,131.729Zm-0.168-17.066c-3.36,0-5.4-2.688-5.4-7.272,0-5.185,2.16-7.585,5.544-7.585,2.688,0,4.248,1.176,4.753,2.5v9.961C420.5,113.319,419.007,114.663,416.031,114.663Z" transform="translate(-260 -80)"/>
  <path class="cls-1" d="M285.154,112.631l-0.93,16.411-0.048.88a9.583,9.583,0,0,1-3.817-1.384l-16.147-10.221A9.149,9.149,0,0,1,261,114.836a8.787,8.787,0,0,1-.988-4.563L261.064,91.6a8.91,8.91,0,0,1,1.111-3.8l14.95,9.466-0.218,3.882a10.16,10.16,0,0,0,1.146,5.313,10.609,10.609,0,0,0,3.744,4.049Zm19.859-14.357s-0.789,13.912-1.05,18.619c-0.23.583-2.026,2.259-4.57,4.4l0.9-22.329a6.182,6.182,0,0,0-2.847-5.452L278.341,81c3.3-.723,5.742-1.13,6.363-0.971,4.073,2.584,16.1,10.193,16.106,10.193a9.133,9.133,0,0,1,3.214,3.481A8.815,8.815,0,0,1,305.013,98.274Zm-11.986,2.055-1.087,26.937c-0.782.6-1.575,1.206-2.357,1.8a9.508,9.508,0,0,1-3.89.938l1.564-27.646a0.726,0.726,0,0,0-.345-0.659L263,86.564a9.326,9.326,0,0,1,3.082-2.485c0.954-.264,1.924-0.523,2.889-0.781l23.041,15.093A2.189,2.189,0,0,1,293.027,100.329Zm5.749-1.42-0.956,23.7c-1.328,1.094-2.792,2.259-4.306,3.445l1.035-25.663a3.662,3.662,0,0,0-1.684-3.222L270.919,82.79c1.874-.483,3.713-0.935,5.405-1.327L296.6,94.741A4.726,4.726,0,0,1,298.776,98.909Z" transform="translate(-260 -80)"/>
</svg>
